<svg
  xmlns="http://www.w3.org/2000/svg"
  width="630"
  height="535"
  viewBox="0 0 630 535"
  fill="none"
>
  <path
    d="M565.068 161.955C541.076 86.6005 481.157 29.3886 404.777 8.92271C328.397 -11.5432 247.9 8.04416 189.452 61.3095L48.5971 189.655C25.2281 210.945 9.66423 238.613 3.59053 269.639C-2.48504 300.673 1.50678 332.157 15.1244 360.706C28.7617 389.239 50.7485 412.135 78.7061 426.923C106.664 441.71 137.972 446.983 169.238 442.184L171.334 441.854C249.841 430.393 330.193 452.223 392.122 501.905C408.098 514.719 426.206 523.885 445.566 529.073C456.092 531.893 467.001 533.535 478.133 533.956C509.737 535.135 540.226 526.3 566.311 508.404C592.381 490.511 611.588 465.236 621.853 435.317C632.117 405.398 632.47 373.663 622.881 343.526L565.068 161.955Z"
    fill="#E5E5E5"
  />
</svg>