<svg xmlns="http://www.w3.org/2000/svg" width="41" height="37" viewBox="0 0 41 37" fill="none">
  <path d="M0.0091059 10.1951C0.0091059 4.56437 4.57347 0 10.2042 0C15.8349 0 20.3993 4.56437 20.3993 10.1951C20.3993 15.8259 15.8349 20.3902 10.2042 20.3902C9.04697 20.3902 7.93926 20.1885 6.90228 19.833C9.1966 32.9915 19.4577 41.4773 9.94569 34.4933C-0.601735 26.7489 -0.00219037 10.5067 0.0096117 10.209C0.0096117 10.2044 0.0091059 10.2003 0.0091059 10.1951Z" fill="#F3F3F2"/>
  <path d="M20.4084 10.1951C20.4084 4.56437 24.9728 0 30.6036 0C36.2343 0 40.7987 4.56437 40.7987 10.1951C40.7987 15.8259 36.2342 20.3902 30.6035 20.3902C29.4462 20.3902 28.3386 20.1885 27.3016 19.833C29.5959 32.9915 39.8571 41.4773 30.345 34.4933C19.7976 26.7489 20.397 10.5067 20.4089 10.209C20.4089 10.2044 20.4084 10.2003 20.4084 10.1951Z" fill="#F3F3F2"/>
</svg>