<svg xmlns="http://www.w3.org/2000/svg" width="0" height="0" style="display: none">
  <symbol fill="none" viewBox="0 0 26 26" id="cart-icon">
    <path fill-rule="evenodd" clip-rule="evenodd" d="M2 4C2 3.44772 2.44772 3 3 3H6.27273C6.74935 3 7.15974 3.33639 7.25328 3.80374L9.4463 14.7606C9.47539 14.9071 9.55508 15.0387 9.67142 15.1324C9.78776 15.226 9.93333 15.2758 10.0827 15.2729L10.1018 15.2727H18.0545L18.0737 15.2729C18.223 15.2758 18.3686 15.226 18.4849 15.1324C18.6005 15.0393 18.6799 14.9089 18.7095 14.7635L18.7101 14.7606L19.7913 9.09091H10.5C9.94772 9.09091 9.5 8.64319 9.5 8.09091C9.5 7.53862 9.94772 7.09091 10.5 7.09091H21C21.298 7.09091 21.5805 7.22384 21.7705 7.45346C21.9605 7.68309 22.0381 7.98549 21.9823 8.27824L20.6718 15.1503C20.5512 15.7572 20.2211 16.3023 19.7391 16.6903C19.2599 17.0761 18.661 17.282 18.0461 17.2727H10.1103C9.49541 17.282 8.89649 17.0761 8.41729 16.6903C7.93554 16.3025 7.60547 15.7577 7.48479 15.1511L5.45304 5H3C2.44772 5 2 4.55228 2 4ZM7.72729 20.3636C7.72729 19.3594 8.54132 18.5454 9.54548 18.5454C10.5496 18.5454 11.3637 19.3594 11.3637 20.3636C11.3637 21.3677 10.5496 22.1818 9.54548 22.1818C8.54132 22.1818 7.72729 21.3677 7.72729 20.3636ZM16.7273 20.3636C16.7273 19.3594 17.5413 18.5454 18.5455 18.5454C19.5496 18.5454 20.3637 19.3594 20.3637 20.3636C20.3637 21.3677 19.5496 22.1818 18.5455 22.1818C17.5413 22.1818 16.7273 21.3677 16.7273 20.3636Z" fill="black"></path>
    <path d="M23 8C23 9.10457 22.1046 10 21 10C19.8954 10 19 9.10457 19 8C19 6.89543 19.8954 6 21 6C22.1046 6 23 6.89543 23 8Z" fill="#E27B3A"></path>
  </symbol>
  <symbol fill="none" viewBox="0 0 26 26" id="lens-icon">
    <path d="M21 22L16.8917 17.8917M19.1111 12.5555C19.1111 16.7284 15.7284 20.1111 11.5555 20.1111C7.38273 20.1111 4 16.7284 4 12.5555C4 8.38273 7.38273 5 11.5555 5C15.7284 5 19.1111 8.38273 19.1111 12.5555Z" stroke="black" stroke-width="2" stroke-linecap="round" stroke-linejoin="round"></path>
  </symbol>
  <symbol fill="none" viewBox="0 0 26 26" id="burger-icon">
    <path fill-rule="evenodd" clip-rule="evenodd" d="M24 5C24 5.55229 23.5523 6 23 6L2 6C1.44772 6 1 5.55228 1 5C1 4.44772 1.44772 4 2 4L23 4C23.5523 4 24 4.44772 24 5Z" fill="black"></path>
    <path fill-rule="evenodd" clip-rule="evenodd" d="M24 13C24 13.5523 23.5523 14 23 14L2 14C1.44772 14 1 13.5523 1 13C1 12.4477 1.44772 12 2 12L23 12C23.5523 12 24 12.4477 24 13Z" fill="black"></path>
    <path fill-rule="evenodd" clip-rule="evenodd" d="M24 21C24 21.5523 23.5523 22 23 22L2 22C1.44772 22 1 21.5523 1 21C1 20.4477 1.44772 20 2 20L23 20C23.5523 20 24 20.4477 24 21Z" fill="black"></path>
  </symbol>
  <symbol viewBox="0 0 63 54" id="food-shape">    
    <path d="M50.6165 11.6737C46.4205 4.36442 39.2743 0 31.4999 0C23.7255 0 16.5793 4.36442 12.384 11.6737L2.27334 29.2863C0.595807 32.2081 -0.178218 35.5843 0.0344966 39.047C0.247211 42.5106 1.42746 45.7359 3.44718 48.3765C5.46832 51.0147 8.13899 52.8179 11.1704 53.5917C14.2017 54.3654 17.3092 54.035 20.1563 52.6376L20.347 52.5431C27.511 49.097 35.6973 49.1288 42.8428 52.6376C44.6861 53.5424 46.6389 54 48.6095 54C49.6809 54 50.7588 53.8642 51.8266 53.5925C54.858 52.8195 57.5286 51.0162 59.5505 48.3773C61.5709 45.7391 62.7519 42.513 62.9653 39.0486C63.1787 35.5843 62.4047 32.2089 60.7272 29.2855L50.6165 11.6737Z"></path>
  </symbol>
  
  <symbol viewBox="0 0 9 17" id="facebook-icon">
    <path d="M7.35689 2.82271H9V0.119708C8.71652 0.082875 7.74161 0 6.6062 0C4.23715 0 2.61428 1.40746 2.61428 3.99429V6.375H0V9.39675H2.61428V17H5.81952V9.39746H8.32806L8.72627 6.37571H5.81877V4.29392C5.81952 3.42054 6.06849 2.82271 7.35689 2.82271Z" fill="#211105"/>
  </symbol>

  <symbol viewBox="0 0 16 17" id="dribble-icon">
    <path d="M10.9133 15.9442C10.9267 15.9402 10.9394 15.9349 10.9527 15.9302C19.104 12.6954 16.8491 0.5 8.00783 0.5C3.57082 0.5 0 4.11276 0 8.49872C0 14.0492 5.62817 18.0099 10.9133 15.9442ZM3.52411 13.8705C4.09267 12.916 5.93247 10.2231 9.07287 9.29393C9.72951 10.9663 10.19 12.9173 10.2353 15.1297C7.85568 15.9289 5.34589 15.391 3.52411 13.8705ZM11.2196 14.7124C11.1322 12.5867 10.6978 10.7017 10.0785 9.06863C11.4679 8.852 13.0761 8.99664 14.8999 9.72653C14.5122 11.9002 13.1208 13.7272 11.2196 14.7124ZM15.0047 8.69269C12.996 7.93881 11.2256 7.84483 9.69348 8.13678C9.45658 7.60353 9.20767 7.09095 8.94408 6.61902C11.295 5.68117 12.6844 4.53802 13.3063 3.93278C14.4041 5.20191 15.0561 6.84499 15.0047 8.69269ZM12.5956 3.2209C12.0298 3.75881 10.6971 4.84531 8.41823 5.73383C7.30114 3.96878 6.10664 2.72364 5.3499 2.02642C7.77093 1.03058 10.563 1.45585 12.5956 3.2209ZM4.39296 2.51501C4.96419 3.01693 6.21808 4.22207 7.42793 6.08577C5.7663 6.62036 3.68293 7.01296 1.14912 7.06828C1.55218 5.13926 2.75603 3.50485 4.39296 2.51501ZM1.02233 8.07212C3.85844 8.02613 6.15402 7.57887 7.96846 6.97363C8.21937 7.41289 8.4576 7.89149 8.68649 8.38874C5.52674 9.39391 3.55214 11.9888 2.79607 13.1606C1.57621 11.8009 0.90355 10.0265 1.02233 8.07212Z" fill="#211105"/>
</symbol>

  <symbol viewBox="0 0 15 13" id="x-icon">
    <path d="M14.7692 1.92062C14.22 2.16154 13.6348 2.32123 13.0246 2.39877C13.6523 2.024 14.1314 1.43508 14.3566 0.725231C13.7714 1.07415 13.1252 1.32062 12.4366 1.45815C11.8809 0.866462 11.0889 0.5 10.2249 0.5C8.54862 0.5 7.19908 1.86062 7.19908 3.52862C7.19908 3.76862 7.21938 3.99938 7.26923 4.21908C4.752 4.09631 2.52462 2.88985 1.02831 1.052C0.767077 1.50523 0.613846 2.024 0.613846 2.58246C0.613846 3.63108 1.15385 4.56062 1.95877 5.09877C1.47231 5.08954 0.995077 4.94831 0.590769 4.72585C0.590769 4.73508 0.590769 4.74708 0.590769 4.75908C0.590769 6.23046 1.64031 7.45262 3.01662 7.73415C2.77015 7.80154 2.50154 7.83385 2.22277 7.83385C2.02892 7.83385 1.83323 7.82277 1.64954 7.78215C2.04185 8.98123 3.15508 9.86277 4.47877 9.89138C3.44862 10.6972 2.14062 11.1828 0.724615 11.1828C0.476308 11.1828 0.238154 11.1717 0 11.1412C1.34123 12.0062 2.93077 12.5 4.64492 12.5C10.2166 12.5 13.2628 7.88462 13.2628 3.884C13.2628 3.75015 13.2582 3.62092 13.2517 3.49262C13.8526 3.06615 14.3575 2.53354 14.7692 1.92062Z" fill="#211105"/>
</symbol>


<symbol viewBox="0 0 50 50" fill="none" id="logo">
  <path d="M45.1 5.3L43.5 4.9L40.95 5.3L37.55 8.7L35.7 10.5L38.65 12.35L41.55 13.95L43.95 15.65L44.65 13.5L45.25 8.55L45.1 5.3Z" fill="#F7E3CD"/>
  <path d="M4.45 5.55L6.05 5.15L8.6 5.55L12 8.95L13.85 10.75L10.9 12.6L8 14.2L5.6 15.9L4.9 13.75L4.3 8.8L4.45 5.55Z" fill="#F7E3CD"/>
  <path d="M8.55 13.5C8.75 13.18 11.3333 11.7333 12.6 11.05L16.35 8.8L19.65 7.1L24 6.5L30.85 7.5C32.4833 8.36667 35.93 10.18 36.65 10.5C37.37 10.82 40.45 12.9 41.9 13.9L44.65 16.4C45.6167 18.4333 47.68 22.79 48.2 23.95C48.85 25.4 48.9 33.85 48.9 34.85C49.05 35.4 45.25 40.6 44.5 41.75C43.9 42.67 39.0167 45.5667 36.65 46.9C33.0333 47.5833 25.52 48.95 24.4 48.95C23.28 48.95 16.4 47.5833 13.1 46.9L7.6 43.6L3.2 39.25L1.1 33.4C1.38333 30.7167 1.97 25.1 2.05 24.1C2.15 22.85 5.35 16.7 8.55 13.5Z" fill="#F29555"/>
  <path d="M2.45 37.2H47.05C45.0333 41.2 37.79 49.16 24.95 49C12.11 48.84 4.6 41.0667 2.45 37.2Z" fill="#F2C59E"/>
  <path d="M13.95 9.65L5.25 4.1L5.15 1.95L6.6 1.2L11.85 2.6L18.1 6.45L17.95 8.1L13.95 9.65Z" fill="#F29555"/>
  <path d="M36.25 9.65L44.95 4.1L45.05 1.95L43.6 1.2L38.35 2.6L32.1 6.45L32.25 8.1L36.25 9.65Z" fill="#F29555"/>
  <path d="M11.4 29.65C7.6 29.65 3.85 32.85 2.5 35.3C2.36667 35.6667 2.46001 36.47 3.70001 37.95C5.25001 39.8 10.144 42.5575 14.85 43.95C19.8152 45.4192 24.35 45.6 28.05 45.2C31.75 44.8 36.25 44.1 40.85 41.65C44.0437 39.949 48.35 36.41 47.55 35.25C46.55 33.8 45.4262 32.3371 43.5 31.2C40.8815 29.6542 38.85 29.45 35.85 29.75C33.2029 30.2291 29.6 33.4 29.6 33.4L24.45 35.3C24.45 35.3 21.7224 33.8342 20 32.85C16.5 30.85 16.251 29.65 11.4 29.65Z" fill="#F7E3CD"/>
  <path d="M5.73 0.180007C4.36 0.670007 3.6 1.66001 3.38 3.23001C3.21 4.39001 3.22 9.87 3.38 11.25C3.55 12.7 3.75 13.8 4.07 15.18L4.34 16.3L4.11 16.68C3.67 17.41 2.52 19.87 2.16 20.85C0.89 24.36 0 29.31 0 32.87C0 37.67 4.85 43.66 11.39 46.94C16.08 49.3 21.83 50.34 27.61 49.9C32.78 49.49 37.46 47.95 41.34 45.36C42.96 44.27 43.92 43.49 45.25 42.16C48.23 39.17 50 35.71 50 32.87C50 29.26 49.1 24.35 47.79 20.73C47.41 19.69 46.24 17.19 45.84 16.58C45.67 16.32 45.67 16.27 45.93 15.18C46.61 12.29 46.86 9.61001 46.77 6.20001C46.73 4.91001 46.66 3.52001 46.6 3.13001C46.43 1.83001 45.72 0.830005 44.61 0.310005C43.77 -0.0799948 42.82 -0.0499935 41.22 0.430007C37.49 1.56001 34.15 3.30001 31.77 5.35001L30.88 6.12001L29.97 5.96001C26.78 5.43001 23.69 5.41001 20.45 5.90001L19.11 6.11001L18.23 5.35001C15.85 3.29001 12.45 1.53 8.78 0.440004C7.26 -0.00999594 6.45 -0.0799935 5.73 0.180007ZM8.47 2.46001C12.19 3.61001 14.66 4.92 17.2 7.09L17.55 7.39L17.01 7.89C16.34 8.53 14.85 9.3 14.29 9.3C14.07 9.3 13.74 9.24 13.56 9.16C13.38 9.08 12.37 8.16001 11.29 7.08001C9.2 4.99001 8.62 4.57001 7.36 4.18001C6.83 4.02001 6.52 3.99001 5.98 4.03001L5.29 4.09L5.35 3.74C5.38 3.56 5.42 3.25001 5.45 3.07001C5.53 2.55001 6.18 2.02001 6.77 2.01001C6.89 2.00001 7.66 2.21001 8.47 2.46001ZM43.67 2.11001C43.82 2.16001 44.07 2.33001 44.22 2.47001C44.48 2.72001 44.52 2.84001 44.64 3.72001L44.68 4.08001L43.97 4.03001C43.42 3.99001 43.1 4.03001 42.63 4.18001C41.35 4.59001 40.78 5.01 38.68 7.09C37.59 8.17 36.58 9.1 36.43 9.17C36.28 9.24 35.97 9.29 35.75 9.3C35.18 9.3 33.67 8.54001 32.99 7.90001L32.45 7.39L32.8 7.09C35.27 4.99 37.85 3.59001 41.15 2.58001C41.87 2.36001 42.56 2.15 42.7 2.1C43.05 1.98 43.34 1.98001 43.67 2.11001ZM7.58 6.41001C7.97 6.63001 8.74 7.32001 10 8.60001C11.02 9.62001 12.06 10.6 12.31 10.78C12.93 11.2 13.53 11.33 14.53 11.28C15.27 11.24 15.47 11.19 16.31 10.78C17.73 10.08 18.7 9.26001 19.46 8.12001C19.53 8.01001 21.93 7.68 23.32 7.59C25.97 7.43 30.36 7.80001 30.6 8.21001C30.86 8.63001 31.64 9.44001 32.24 9.89001C34.17 11.34 36.2 11.72 37.53 10.89C37.82 10.71 38.86 9.75001 39.85 8.75001C40.84 7.76001 41.86 6.79001 42.12 6.62001C43.06 5.98001 43.84 5.84001 44.41 6.23001L44.75 6.46001L44.78 7.70001C44.83 9.56001 44.57 12.26 44.19 13.92L44.08 14.39L43.31 13.76C42.47 13.08 42.16 12.95 41.76 13.1C41.32 13.27 41.1 13.56 41.1 14.01C41.1 14.36 41.16 14.48 41.48 14.79C43.45 16.65 43.78 17.02 44.37 18.08C45.4 19.91 46.12 21.67 46.69 23.8C47.4 26.44 47.85 29.36 47.96 32.02C48.02 33.41 48.01 33.63 47.8 34.45C46.99 37.64 43.93 41.36 40.1 43.82C36.71 46 33.09 47.27 28.7 47.82C27.31 47.99 22.69 47.99 21.3 47.82C16.33 47.2 12.17 45.58 8.5 42.84C6.13 41.07 3.71 38.21 2.74 36.04C2.37 35.21 2 33.66 2 32.94C2 32.6 2.05 31.75 2.1 31.04C2.45 26.64 3.42 22.62 4.86 19.6C5.88 17.47 6.2 17.01 7.6 15.68C8.31 15.01 8.91 14.36 8.94 14.23C9.04 13.85 8.75 13.31 8.35 13.14C7.85 12.94 7.59 13.04 6.72 13.76C6.3 14.11 5.94 14.38 5.92 14.36C5.86 14.29 5.52 12.23 5.39 11.1C5.32 10.47 5.26 9.16001 5.25 8.20001V6.46001L5.6 6.22001C6.08 5.89001 6.78 5.96001 7.58 6.41001Z" fill="black"/>
  <path d="M14.56 22.15C14 22.35 13.51 22.78 13.21 23.35C12.86 24.02 12.84 25.14 13.17 25.76C13.66 26.69 14.79 27.3 15.78 27.16C16.79 27.02 17.74 26.18 18.01 25.17C18.14 24.66 18.05 23.9 17.8 23.4C17.55 22.91 16.77 22.23 16.31 22.1C15.81 21.96 15.02 21.98 14.56 22.15Z" fill="black"/>
  <path d="M33.78 22.13C31.94 22.82 31.51 25.25 33.01 26.53C34.17 27.53 35.92 27.31 36.77 26.07C37.62 24.81 37.32 23.27 36.03 22.36C35.68 22.12 35.49 22.06 34.88 22.03C34.42 22.01 34.01 22.05 33.78 22.13Z" fill="black"/>
  <path d="M23.99 28.41C22.28 28.66 20.88 29.55 20.29 30.76C20 31.34 19.98 31.46 20.02 32.13C20.06 32.7 20.14 32.99 20.39 33.46C21.05 34.7 22.13 35.64 23.38 36.06C23.74 36.19 24.06 36.33 24.08 36.39C24.12 36.52 22.98 37.46 22.41 37.74C21.14 38.39 19.55 38.5 18.14 38.06C17.11 37.72 16.85 37.73 16.49 38.09C15.93 38.66 16.22 39.51 17.08 39.79C17.43 39.91 17.51 40 17.76 40.54C19.02 43.3 21.56 44.8 25 44.8C27.33 44.8 29.23 44.13 30.6 42.84C31.32 42.16 31.68 41.66 32.22 40.6C32.52 40.02 32.59 39.95 33.08 39.78C33.69 39.55 33.92 39.26 33.92 38.73C33.92 38.44 33.85 38.3 33.6 38.07C33.23 37.74 33.01 37.74 31.85 38.09C31.05 38.33 29.59 38.39 28.88 38.2C27.47 37.82 25.44 36.2 26.38 36.2C26.48 36.2 26.89 36.04 27.29 35.85C28.28 35.37 29.33 34.33 29.81 33.35C30.26 32.42 30.28 31.52 29.88 30.74C28.99 29.03 26.49 28.04 23.99 28.41Z" fill="black"/>
  <path d="M19.9 40.3C20.05 42.05 26.8 45.15 30.15 40.3C30.15 40.3 28.7208 40.35 27.2 39.7C26.2 39.2726 25 38.25 25 38.25C24 39.6 20.55 40.6 19.9 40.3Z" fill="#AA0C18"/>
  <path d="M34.4 18.8C34.57 19.75 33.3967 20.9256 32.35 21C31.3033 21.0744 29.9353 20.45 29.85 19.25C29.805 18.6165 30.8498 17.4631 31.95 17.35C33.056 17.2363 34.2041 17.7056 34.4 18.8Z" fill="#F7E3CD"/>
  <path d="M15.8511 18.8179C15.6811 19.7679 16.8544 20.9436 17.9011 21.018C18.9478 21.0923 20.3158 20.4679 20.4011 19.268C20.4461 18.6344 19.4013 17.4811 18.3011 17.368C17.1952 17.2542 16.047 17.7236 15.8511 18.8179Z" fill="#F7E3CD"/>
</symbol>

<symbol viewBox="0 0 15 15" fill="none" id="star">
<path d="M0 5.7292L5.45036 5.35696L7.50299 0L9.55562 5.35696L15 5.7292L10.8242 9.41256L12.1945 15L7.50299 11.9194L2.81147 15L4.18175 9.41256L0 5.7292Z" fill="#F29555"/>
</symbol>

</svg>