<svg xmlns="http://www.w3.org/2000/svg" width="307" height="264" viewBox="0 0 307 264" fill="none">
  <path d="M246.655 57.0713C226.208 21.3372 191.384 0 153.499 0C115.615 0 80.7911 21.3372 60.3476 57.0713L11.078 143.177C2.90338 157.462 -0.868459 173.968 0.168103 190.897C1.20466 207.83 6.95602 223.598 16.7982 236.507C26.6472 249.405 39.6614 258.221 54.4333 262.004C69.2052 265.787 84.348 264.171 98.222 257.339L99.1511 256.877C134.061 240.03 173.953 240.185 208.774 257.339C217.756 261.763 227.272 264 236.875 264C242.096 264 247.348 263.336 252.552 262.008C267.324 258.229 280.338 249.413 290.19 236.511C300.036 223.613 305.791 207.841 306.831 190.904C307.871 173.968 304.099 157.466 295.924 143.173L246.655 57.0713Z" fill="#D9D9D9"/>
</svg>