<svg xmlns="http://www.w3.org/2000/svg" width="0" height="0" style="display: none">
  <symbol fill="none" viewBox="0 0 26 26" id="cart-icon">
    <path fill-rule="evenodd" clip-rule="evenodd" d="M2 4C2 3.44772 2.44772 3 3 3H6.27273C6.74935 3 7.15974 3.33639 7.25328 3.80374L9.4463 14.7606C9.47539 14.9071 9.55508 15.0387 9.67142 15.1324C9.78776 15.226 9.93333 15.2758 10.0827 15.2729L10.1018 15.2727H18.0545L18.0737 15.2729C18.223 15.2758 18.3686 15.226 18.4849 15.1324C18.6005 15.0393 18.6799 14.9089 18.7095 14.7635L18.7101 14.7606L19.7913 9.09091H10.5C9.94772 9.09091 9.5 8.64319 9.5 8.09091C9.5 7.53862 9.94772 7.09091 10.5 7.09091H21C21.298 7.09091 21.5805 7.22384 21.7705 7.45346C21.9605 7.68309 22.0381 7.98549 21.9823 8.27824L20.6718 15.1503C20.5512 15.7572 20.2211 16.3023 19.7391 16.6903C19.2599 17.0761 18.661 17.282 18.0461 17.2727H10.1103C9.49541 17.282 8.89649 17.0761 8.41729 16.6903C7.93554 16.3025 7.60547 15.7577 7.48479 15.1511L5.45304 5H3C2.44772 5 2 4.55228 2 4ZM7.72729 20.3636C7.72729 19.3594 8.54132 18.5454 9.54548 18.5454C10.5496 18.5454 11.3637 19.3594 11.3637 20.3636C11.3637 21.3677 10.5496 22.1818 9.54548 22.1818C8.54132 22.1818 7.72729 21.3677 7.72729 20.3636ZM16.7273 20.3636C16.7273 19.3594 17.5413 18.5454 18.5455 18.5454C19.5496 18.5454 20.3637 19.3594 20.3637 20.3636C20.3637 21.3677 19.5496 22.1818 18.5455 22.1818C17.5413 22.1818 16.7273 21.3677 16.7273 20.3636Z" fill="black"></path>
    <path d="M23 8C23 9.10457 22.1046 10 21 10C19.8954 10 19 9.10457 19 8C19 6.89543 19.8954 6 21 6C22.1046 6 23 6.89543 23 8Z" fill="#E27B3A"></path>
  </symbol>
  <symbol fill="none" viewBox="0 0 26 26" id="lens-icon">
    <path d="M21 22L16.8917 17.8917M19.1111 12.5555C19.1111 16.7284 15.7284 20.1111 11.5555 20.1111C7.38273 20.1111 4 16.7284 4 12.5555C4 8.38273 7.38273 5 11.5555 5C15.7284 5 19.1111 8.38273 19.1111 12.5555Z" stroke="black" stroke-width="2" stroke-linecap="round" stroke-linejoin="round"></path>
  </symbol>
  <symbol fill="none" viewBox="0 0 26 26" id="burger-icon">
    <path fill-rule="evenodd" clip-rule="evenodd" d="M24 5C24 5.55229 23.5523 6 23 6L2 6C1.44772 6 1 5.55228 1 5C1 4.44772 1.44772 4 2 4L23 4C23.5523 4 24 4.44772 24 5Z" fill="black"></path>
    <path fill-rule="evenodd" clip-rule="evenodd" d="M24 13C24 13.5523 23.5523 14 23 14L2 14C1.44772 14 1 13.5523 1 13C1 12.4477 1.44772 12 2 12L23 12C23.5523 12 24 12.4477 24 13Z" fill="black"></path>
    <path fill-rule="evenodd" clip-rule="evenodd" d="M24 21C24 21.5523 23.5523 22 23 22L2 22C1.44772 22 1 21.5523 1 21C1 20.4477 1.44772 20 2 20L23 20C23.5523 20 24 20.4477 24 21Z" fill="black"></path>
  </symbol>
  <symbol viewBox="0 0 63 54" id="food-shape">    
      <path d="M50.6165 11.6737C46.4205 4.36442 39.2743 0 31.4999 0C23.7255 0 16.5793 4.36442 12.384 11.6737L2.27334 29.2863C0.595807 32.2081 -0.178218 35.5843 0.0344966 39.047C0.247211 42.5106 1.42746 45.7359 3.44718 48.3765C5.46832 51.0147 8.13899 52.8179 11.1704 53.5917C14.2017 54.3654 17.3092 54.035 20.1563 52.6376L20.347 52.5431C27.511 49.097 35.6973 49.1288 42.8428 52.6376C44.6861 53.5424 46.6389 54 48.6095 54C49.6809 54 50.7588 53.8642 51.8266 53.5925C54.858 52.8195 57.5286 51.0162 59.5505 48.3773C61.5709 45.7391 62.7519 42.513 62.9653 39.0486C63.1787 35.5843 62.4047 32.2089 60.7272 29.2855L50.6165 11.6737Z"></path>
  </symbol>
</svg>